<svg width="32" height="32" viewBox="0 0 32 32" fill="none" xmlns="http://www.w3.org/2000/svg">
<rect width="32" height="32" rx="3" fill="#00E676"/>
<path d="M8.737 22.195C8.599 22.0877 8.49933 21.9803 8.438 21.873C8.392 21.7657 8.392 21.5587 8.438 21.252C8.484 20.8227 8.54533 20.447 8.622 20.125C8.69867 19.7877 8.79067 19.4043 8.898 18.975C8.92867 18.791 9.013 18.4767 9.151 18.032C9.30433 17.5873 9.48833 17.1043 9.703 16.583C9.91767 16.0617 10.1323 15.571 10.347 15.111C10.5617 14.6357 10.7457 14.283 10.899 14.053C11.0217 13.961 11.1673 13.9227 11.336 13.938C11.52 13.9533 11.6733 14.0223 11.796 14.145C11.9647 14.283 11.9877 14.5283 11.865 14.881C11.7577 15.2183 11.5277 15.755 11.175 16.491C10.991 16.905 10.853 17.2193 10.761 17.434C10.669 17.6333 10.6307 17.756 10.646 17.802C10.6613 17.8327 10.7303 17.8097 10.853 17.733C10.945 17.5643 11.1137 17.3727 11.359 17.158C11.6043 16.928 11.865 16.7057 12.141 16.491C12.417 16.2763 12.6777 16.0847 12.923 15.916C13.1683 15.7473 13.337 15.64 13.429 15.594C13.5517 15.5173 13.6897 15.456 13.843 15.41C14.0117 15.3487 14.1267 15.3027 14.188 15.272C14.5407 15.1033 14.901 15.042 15.269 15.088C15.637 15.134 15.867 15.272 15.959 15.502C15.9743 15.6247 16.0203 15.7167 16.097 15.778C16.189 15.8393 16.235 15.87 16.235 15.87C16.2963 15.87 16.327 15.893 16.327 15.939C16.3423 15.985 16.35 16.008 16.35 16.008C16.35 16.1153 16.2657 16.1843 16.097 16.215C15.9437 16.2303 15.7443 16.2457 15.499 16.261C15.2997 16.2763 15.1233 16.3147 14.97 16.376C14.8167 16.4373 14.6327 16.514 14.418 16.606C13.8353 16.9433 13.2757 17.273 12.739 17.595C12.2177 17.917 11.7117 18.3463 11.221 18.883C11.1137 19.0057 11.0063 19.1513 10.899 19.32C10.7917 19.4887 10.6767 19.6727 10.554 19.872C10.4773 19.9487 10.4007 20.1173 10.324 20.378C10.2473 20.6387 10.1783 20.8917 10.117 21.137C10.071 21.367 10.048 21.505 10.048 21.551C10.048 21.551 10.025 21.6277 9.979 21.781C9.933 21.919 9.85633 22.057 9.749 22.195C9.565 22.4403 9.41167 22.563 9.289 22.563C9.16633 22.563 8.98233 22.4403 8.737 22.195ZM19.8771 22.632C19.4938 22.632 19.1181 22.5937 18.7501 22.517C18.3974 22.425 18.1138 22.31 17.8991 22.172C17.6844 22.0187 17.5848 21.85 17.6001 21.666C17.6154 21.4207 17.6691 21.2903 17.7611 21.275C17.8531 21.2443 18.0678 21.252 18.4051 21.298C18.9264 21.4053 19.4861 21.413 20.0841 21.321C20.6821 21.229 21.2418 21.068 21.7631 20.838C22.2844 20.608 22.6908 20.3473 22.9821 20.056C23.3961 19.6573 23.5801 19.2587 23.5341 18.86C23.5034 18.4613 23.2658 18.1163 22.8211 17.825C22.6218 17.687 22.3458 17.5567 21.9931 17.434C21.6404 17.3113 21.2878 17.2193 20.9351 17.158C20.5978 17.0813 20.3218 17.0507 20.1071 17.066C19.9691 17.0813 19.8541 17.0813 19.7621 17.066C19.6854 17.0507 19.5474 16.9893 19.3481 16.882C19.2561 16.7747 19.1718 16.6597 19.0951 16.537C19.0184 16.399 18.9648 16.2993 18.9341 16.238C18.9188 16.1613 18.9571 16.0847 19.0491 16.008C19.1564 15.9313 19.3788 15.801 19.7161 15.617C20.0534 15.4177 20.5748 15.1263 21.2801 14.743C21.9241 14.3903 22.4301 14.1067 22.7981 13.892C23.1814 13.662 23.4804 13.478 23.6951 13.34C23.9251 13.1867 24.1091 13.0487 24.2471 12.926C24.5231 12.558 24.6611 12.3203 24.6611 12.213C24.6611 12.1057 24.4618 12.0137 24.0631 11.937C23.6798 11.9063 23.3118 11.8833 22.9591 11.868C22.6064 11.8527 22.4301 11.8757 22.4301 11.937C22.4301 11.937 22.4224 11.937 22.4071 11.937C22.4071 11.937 22.3841 11.937 22.3381 11.937C22.2614 11.9063 22.0928 11.914 21.8321 11.96C21.5714 12.006 21.3184 12.0597 21.0731 12.121C20.8431 12.1823 20.7204 12.236 20.7051 12.282C20.6898 12.3127 20.5978 12.3663 20.4291 12.443C20.2758 12.5043 20.1148 12.558 19.9461 12.604C19.7928 12.65 19.6931 12.673 19.6471 12.673C19.5704 12.6423 19.4784 12.5657 19.3711 12.443C19.2791 12.305 19.2024 12.167 19.1411 12.029C19.0798 11.8757 19.0644 11.7607 19.0951 11.684C19.1258 11.6227 19.2178 11.546 19.3711 11.454C19.5398 11.3467 19.7314 11.2393 19.9461 11.132C20.1608 11.0093 20.3524 10.9097 20.5211 10.833C20.7358 10.7717 21.0348 10.7257 21.4181 10.695C21.8168 10.6643 22.2154 10.649 22.6141 10.649C23.0128 10.6337 23.3041 10.6337 23.4881 10.649C24.1934 10.7257 24.7378 10.9097 25.1211 11.201C25.5044 11.4923 25.7421 11.8833 25.8341 12.374C25.8801 12.5887 25.8954 12.765 25.8801 12.903C25.8648 13.041 25.7958 13.1867 25.6731 13.34C25.5504 13.478 25.3358 13.685 25.0291 13.961C24.6458 14.2063 24.3314 14.4133 24.0861 14.582C23.8408 14.7507 23.4728 14.9653 22.9821 15.226C22.8748 15.3027 22.7291 15.4023 22.5451 15.525C22.3611 15.6477 22.1924 15.7627 22.0391 15.87C21.8858 15.962 21.8091 16.0233 21.8091 16.054C21.8091 16.054 21.8398 16.077 21.9011 16.123C21.9624 16.1537 22.0391 16.1997 22.1311 16.261C22.2231 16.3223 22.3074 16.3913 22.3841 16.468C22.8288 16.6213 23.2351 16.8667 23.6031 17.204C23.9711 17.5413 24.2318 17.8173 24.3851 18.032C24.5998 18.5073 24.6841 18.9673 24.6381 19.412C24.6074 19.8567 24.4541 20.2783 24.1781 20.677C23.9021 21.0603 23.4958 21.413 22.9591 21.735C22.5298 21.9803 22.0314 22.1873 21.4641 22.356C20.8968 22.5093 20.3678 22.6013 19.8771 22.632Z" fill="black"/>
</svg>
